<svg xmlns="http://www.w3.org/2000/svg" xmlns:xlink="http://www.w3.org/1999/xlink" width="687.585" height="703.172" viewBox="0 0 687.585 703.172">
  <defs>
    <linearGradient id="linear-gradient" x1="0.477" y1="0.122" x2="0.044" y2="1.123" gradientUnits="objectBoundingBox">
      <stop offset="0" stop-color="#fff"/>
      <stop offset="0.179" stop-color="#d8d7d7"/>
      <stop offset="1" stop-color="gray"/>
    </linearGradient>
    <linearGradient id="linear-gradient-3" x1="0.807" y1="0.134" x2="0.069" y2="0.868" gradientUnits="objectBoundingBox">
      <stop offset="0" stop-color="#fff"/>
      <stop offset="0.477" stop-color="#d8d1d1"/>
      <stop offset="1" stop-color="gray"/>
    </linearGradient>
    <linearGradient id="linear-gradient-4" x1="0.715" x2="0.045" y2="0.972" gradientUnits="objectBoundingBox">
      <stop offset="0" stop-color="#fff"/>
      <stop offset="1" stop-color="gray"/>
    </linearGradient>
    <linearGradient id="linear-gradient-6" x1="0.877" y1="0.155" x2="0.108" y2="0.786" xlink:href="#linear-gradient-4"/>
  </defs>
  <g id="Group_3" data-name="Group 3" transform="translate(-573.5 -21.871)">
    <path id="Polygon_4" data-name="Polygon 4" d="M159.241,52.8c11.108-21.917,42.411-21.917,53.519,0L349.922,323.438A30,30,0,0,1,323.163,367H48.837a30,30,0,0,1-26.76-43.562Z" transform="translate(637.228 213.337) rotate(10)" fill="url(#linear-gradient)"/>
    <path id="Polygon_5" data-name="Polygon 5" d="M83.823,77.091c9.6-26.268,46.753-26.268,56.354,0l9.244,25.291a30,30,0,0,0,5.088,8.856L172,132.32c17.81,21.467-.755,53.495-28.234,48.71L117.146,176.4a30,30,0,0,0-10.292,0L80.236,181.03C52.756,185.815,34.191,153.787,52,132.32l17.49-21.081a30,30,0,0,0,5.088-8.856Z" transform="matrix(-0.899, -0.438, 0.438, -0.899, 823.833, 349.853)" fill="url(#linear-gradient)"/>
    <g id="Path_13" data-name="Path 13" transform="translate(1191 51.224)" fill="url(#linear-gradient-3)">
      <path d="M 48.31622314453125 60.03408050537109 C 45.98295593261719 60.03408050537109 43.42547607421875 59.68993377685547 40.71484375 59.01121139526367 C 34.35538864135742 57.4188346862793 28.66612243652344 55.51425933837891 23.80507850646973 53.35037994384766 C 18.7996997833252 51.12223434448242 14.54220008850098 48.5611686706543 11.15084457397461 45.73830032348633 C 7.668099880218506 42.83935928344727 5.006444454193115 39.58682250976563 3.239833354949951 36.071044921875 C 1.421811103820801 32.45294570922852 0.4999888837337494 28.45187950134277 0.4999888837337494 24.17897987365723 C 0.4999888837337494 16.69750213623047 0.8598666787147522 8.126957893371582 3.529066562652588 1.285613298416138 C 4.960344314575195 -2.38283109664917 6.961077690124512 -5.224831104278564 9.475710868835449 -7.161453247070313 C 10.86699962615967 -8.232942581176758 12.45124435424805 -9.056119918823242 14.18446636199951 -9.608131408691406 C 16.03376579284668 -10.19710922241211 18.10935592651367 -10.49574184417725 20.35358810424805 -10.49574184417725 C 24.48991203308105 -10.49574184417725 29.35995483398438 -9.48288631439209 34.82844543457031 -7.48530912399292 C 42.8734016418457 -4.546575546264648 49.24148941040039 -2.130920171737671 54.17119979858398 0.1064354851841927 C 59.10642242431641 2.346279859542847 62.29901123046875 4.268513202667236 64.52291870117188 6.339102268218994 C 66.68866729736328 8.355535507202148 67.97129821777344 10.55869102478027 68.68175506591797 13.48266887664795 C 69.36313629150391 16.28694725036621 69.50000762939453 19.65447998046875 69.50000762939453 24.17897987365723 C 69.50000762939453 34.12544631958008 68.18801116943359 42.16164779663086 65.60044097900391 48.06434631347656 C 63.96582412719727 51.79324722290039 61.80115509033203 54.68849182128906 59.16659927368164 56.6696891784668 C 56.19793319702148 58.90213394165039 52.54733276367188 60.03408050537109 48.31622314453125 60.03408050537109 Z" stroke="none"/>
      <path d="M 20.35358810424805 -9.995746612548828 C 18.16091918945313 -9.995746612548828 16.13637542724609 -9.705039978027344 14.33620071411133 -9.131710052490234 C 12.65854263305664 -8.597404479980469 11.12588119506836 -7.801227569580078 9.780788421630859 -6.765323638916016 C 7.339271545410156 -4.885005950927734 5.392601013183594 -2.115135192871094 3.994873046875 1.46734619140625 C 1.355796813964844 8.231452941894531 0.9999847412109375 16.7440299987793 0.9999847412109375 24.17898368835449 C 0.9999847412109375 28.37321853637695 1.903892517089844 32.29874801635742 3.686599731445313 35.8465576171875 C 5.422164916992188 39.300537109375 8.041118621826172 42.49931335449219 11.47071838378906 45.35400772094727 C 14.82672882080078 48.14746475219727 19.04502487182617 50.68414688110352 24.0084114074707 52.89358520507813 C 28.84310531616211 55.04573822021484 34.50482177734375 56.9408073425293 40.83629608154297 58.52618408203125 C 43.50723266601563 59.19496917724609 46.02384948730469 59.53407669067383 48.31622314453125 59.53407669067383 C 52.43651580810547 59.53407669067383 55.98600006103516 58.4359130859375 58.86609649658203 56.27007675170898 C 61.43111801147461 54.34115982055664 63.54281234741211 51.5128173828125 65.14251708984375 47.86360549926758 C 67.70216369628906 42.02458190917969 69.00001525878906 34.05592346191406 69.00001525878906 24.17898368835449 C 69.00001525878906 19.69144248962402 68.86549377441406 16.35654830932617 68.19589233398438 13.60072326660156 C 67.50991821289063 10.77751159667969 66.27205657958984 8.650806427001953 64.18221282958984 6.705043792724609 C 61.99961090087891 4.672924041748047 58.84836578369141 2.778255462646484 53.96455383300781 0.561737060546875 C 49.04918670654297 -1.669109344482422 42.69113922119141 -4.080841064453125 34.65688323974609 -7.015663146972656 C 29.2435302734375 -8.993099212646484 24.43119812011719 -9.995746612548828 20.35358810424805 -9.995746612548828 M 20.35359191894531 -10.99574279785156 C 24.38897323608398 -10.99574279785156 29.21662139892578 -10.06756210327148 35 -7.954959869384766 C 67.96968078613281 4.088512420654297 70.00001525878906 6.431900024414063 70.00001525878906 24.17898368835449 C 70.00001525878906 39.93515014648438 66.71692657470703 60.53407669067383 48.31622314453125 60.53407669067383 C 45.99114990234375 60.53407669067383 43.42510986328125 60.20527648925781 40.59339904785156 59.49623107910156 C 15.35147094726563 53.17578125 -1.52587890625e-05 41.92606353759766 -1.52587890625e-05 24.17898368835449 C -1.52587890625e-05 9.545005798339844 1.384201049804688 -10.99574279785156 20.35359191894531 -10.99574279785156 Z" stroke="none" fill="#707070"/>
    </g>
    <rect id="Rectangle_6" data-name="Rectangle 6" width="298" height="298" rx="34" transform="matrix(0.914, 0.407, -0.407, 0.914, 988.848, 76.456)" fill="url(#linear-gradient-4)"/>
    <path id="Path_21" data-name="Path 21" d="M201.18,198.147a24.694,24.694,0,0,1-24.694,24.694H24.694A24.694,24.694,0,0,1,0,198.147C0,32.716,201.18,46.354,201.18,198.147Z" transform="matrix(0.914, 0.407, -0.407, 0.914, 1109.307, 439.641)" fill="url(#linear-gradient-4)"/>
    <path id="Path_9" data-name="Path 9" d="M503.361,129.55c-4.911-5.149-11.588-15.733-4.007-25.936s25.413-8.582,30.324-3.433,3.767,15.733-3.814,25.936S508.272,134.7,503.361,129.55Z" transform="translate(400 -74.25)" fill="url(#linear-gradient-6)"/>
  </g>
</svg>
