<svg xmlns="http://www.w3.org/2000/svg" width="152" height="141" viewBox="0 0 152 141">
  <g id="shapesIcon" transform="translate(-817 -2407)">
    <g id="Polygon_2" data-name="Polygon 2" transform="translate(879 2407)" fill="none">
      <path d="M36.338,15.014a10,10,0,0,1,17.324,0L81.348,63a10,10,0,0,1-8.662,15H17.314A10,10,0,0,1,8.652,63Z" stroke="none"/>
      <path d="M 45 16.01109313964844 C 44.30538177490234 16.01109313964844 42.57725143432617 16.20607757568359 41.5352668762207 18.01220703125 L 13.849365234375 66.00112915039063 C 12.80795288085938 67.80622863769531 13.50309753417969 69.39937591552734 13.85031890869141 70.00054168701172 C 14.19753265380859 70.60173034667969 15.2301025390625 71.99999237060547 17.31410217285156 71.99999237060547 L 72.6859130859375 71.99999237060547 C 74.76944732666016 71.99999237060547 75.80208587646484 70.6015625 76.14933013916016 70.00031280517578 C 76.49658203125 69.39909362792969 77.19183349609375 67.80586242675781 76.150634765625 66.00111389160156 L 48.4647331237793 18.01220703125 C 47.42273330688477 16.20607757568359 45.69461822509766 16.01109313964844 45 16.01109313964844 M 45 10.01110076904297 C 48.36885452270508 10.01110076904297 51.73770904541016 11.67869567871094 53.66184997558594 15.01387786865234 L 81.34774780273438 63.00277709960938 C 85.19366455078125 69.66903686523438 80.38166809082031 77.99999237060547 72.68592071533203 77.99999237060547 C 72.68545532226563 77.99999237060547 72.68637084960938 77.99999237060547 72.68589782714844 77.99999237060547 L 17.31410217285156 77.99999237060547 C 9.617515563964844 77.99999237060547 4.806083679199219 69.66944122314453 8.652252197265625 63.00277709960938 L 36.33815002441406 15.01387786865234 C 38.26229095458984 11.67869567871094 41.63114547729492 10.01110076904297 45 10.01110076904297 Z" stroke="none" fill="#171d39"/>
    </g>
    <g id="Rectangle_4" data-name="Rectangle 4" transform="translate(843 2455)" fill="none" stroke="#171d39" stroke-width="6">
      <rect width="71" height="75" rx="15" stroke="none"/>
      <rect x="3" y="3" width="65" height="69" rx="12" fill="none"/>
    </g>
    <g id="Ellipse_1" data-name="Ellipse 1" transform="translate(817 2500)" fill="none" stroke="#171d39" stroke-width="6">
      <ellipse cx="26" cy="24" rx="26" ry="24" stroke="none"/>
      <ellipse cx="26" cy="24" rx="23" ry="21" fill="none"/>
    </g>
  </g>
</svg>
